<?xml version="1.0" encoding="UTF-8"?>
<svg width="32" height="32" viewBox="0 0 32 32" xmlns="http://www.w3.org/2000/svg">
  <style>
    path {
      fill: #2563eb;
    }
    @media (prefers-color-scheme: dark) {
      path {
        fill: #60a5fa;
      }
    }
  </style>
  <path d="M16 2L4 7V14C4 20.732 9.28 27.292 16 30C22.72 27.292 28 20.732 28 14V7L16 2ZM16 27.816C10.424 25.472 6 19.936 6 14V8.2L16 4.2L26 8.2V14C26 19.936 21.576 25.472 16 27.816Z"/>
  <path d="M14.2929 19.7071L21.2929 12.7071C21.6834 12.3166 21.6834 11.6834 21.2929 11.2929C20.9024 10.9024 20.2692 10.9024 19.8787 11.2929L13.5858 17.5858L10.7071 14.7071C10.3166 14.3166 9.68342 14.3166 9.29289 14.7071C8.90237 15.0976 8.90237 15.7308 9.29289 16.1213L12.8787 19.7071C13.2692 20.0976 13.9024 20.0976 14.2929 19.7071Z"/>
</svg> 